<svg xmlns="http://www.w3.org/2000/svg" xmlns:xlink="http://www.w3.org/1999/xlink" viewBox="0 0 134.167 84.167" fill="#fff" fill-rule="evenodd" stroke="#000" stroke-linecap="round" stroke-linejoin="round"><use xlink:href="#A" x="2.083" y="2.083"/><symbol id="A" overflow="visible"><g stroke="none" fill-rule="nonzero"><path d="M0 0h129.167v79.167H0z" fill="#1e50a0"/><path d="M0 0h129.167v79.167H0z"/><path d="M0 52.083h129.167v27.083H0zM0 0h129.167v27.083H0z" fill="#61b2e4"/></g><path d="M64.583 35.202l2.575-3.952-.125 4.792 4.292-1.604-2.779 3.796 4.371 1.35-4.371 1.354 2.779 3.796-4.292-1.604.125 4.792-2.575-3.956-2.575 3.952.125-4.792-4.292 1.604 2.779-3.796-4.371-1.35 4.371-1.354-2.779-3.796 4.292 1.604-.125-4.792 2.575 3.956z" fill="#f1b31c" stroke="#f1b31c" fill-rule="nonzero" stroke-width="2.083"/><path d="M0 0h129.167v79.167H0z" fill="none" stroke-width="4.167"/></symbol></svg>