<svg xmlns="http://www.w3.org/2000/svg" xmlns:xlink="http://www.w3.org/1999/xlink" viewBox="0 0 134.167 84.167" fill="#fff" fill-rule="evenodd" stroke="#000" stroke-linecap="round" stroke-linejoin="round"><use xlink:href="#A" x="2.083" y="2.083"/><symbol id="A" overflow="visible"><g stroke="none" fill-rule="nonzero"><path d="M0 0h129.167v79.167H0z" fill="#5c9e31"/><path d="M0 0h129.167v39.583H0z"/></g><g stroke="#d22f27" stroke-width="4.167"><path d="M112.5 21.875V12.5l-5.771 7.212 5.771 2.163z" fill="#d22f27" fill-rule="nonzero"/><g fill="none"><path d="M96.875 29.166c0-1.154 1.394-2.083 3.125-2.083s3.125.929 3.125 2.083-1.394 2.083-3.125 2.083-3.125-.929-3.125-2.083z"/><path d="M110.416 18.75c-2.673 7.758-5.717 12.5-10.417 12.5m0 37.5l-4.167-2.083h-6.25l-6.25 3.125m6.251-3.126l-4.167-2.083m10.417 2.083l-6.25-18.75M68.75 68.75l-4.167-2.083h-6.25l-6.25 3.125m6.25-3.125l-4.167-2.083M37.5 68.75l-4.167-2.083h-6.25l-6.25 3.125m6.25-3.125l-4.167-2.083m10.417 2.083l12.5-12.5m-12.5 12.5l6.25-12.5M18.75 43.75l2.083-4.167v-6.25l-3.125-6.25"/><path d="M20.833 33.333l2.083-4.167m-2.083 10.417L33.333 50m-18.75-37.5c0 4.602 3.731 8.333 8.333 8.333m0 0h4.167"/></g><path d="M77.083 8.333L63.362 22.054c-1.763 1.966-2.803 4.475-2.946 7.112v2.083a6.25 6.25 0 0 1-6.25 6.25h-8.333v-25H35.416l-8.333 8.333h12.5c0 9.173-6.25 9.465-6.25 20.833v12.5h27.083l7.052 5.288-2.885 7.213L75 56.25c-5.208-3.375-2.329-9.375 2.083-10.417 4.871 5.098 12.5 6.25 18.75 6.25v-3.125L85.416 43.75H100v-4.167c-8.035 0-10.715-2.083-18.75-2.083 0-4.602 3.731-8.333 8.333-8.333-5.827-4.848-.554-14.317 6.25-18.75-6.25 4.167-9.375 6.25-13.542 6.25-3.635 0-5.208-2.702-5.208-8.333" fill="#d22f27" fill-rule="nonzero"/><g fill="none"><path d="M75 56.25l4.167 2.083m16.667 8.333V48.958m0 0l6.25 3.125M100 39.583c5.417 0 9.015-5.319 7.013-8.671"/><path d="M100 27.084c4.602 0 8.333 3.731 8.333 8.333S104.602 43.75 100 43.75M45.833 12.5l2.083-2.083m12.5 43.75H33.333a4.56 4.56 0 0 1-3.294-1.696l-9.206-12.888"/></g></g><path d="M0 0h129.167v79.167H0z" fill="none" stroke-width="4.167"/></symbol></svg>