<svg xmlns="http://www.w3.org/2000/svg" xmlns:xlink="http://www.w3.org/1999/xlink" viewBox="0 0 134.167 84.167" fill="#fff" fill-rule="evenodd" stroke="#000" stroke-linecap="round" stroke-linejoin="round"><use xlink:href="#A" x="2.083" y="2.083"/><symbol id="A" overflow="visible"><g stroke="none" fill-rule="nonzero"><path d="M0 0h129.167v79.167H0z" fill="#5c9e31"/><path d="M0 0h43.75v79.167H0z" fill="#d22f27"/></g><g stroke="#fcea2b" fill="none"><path d="M18.75 39.583c0-13.85 11.15-25 25-25s25 11.15 25 25-11.15 25-25 25-25-11.15-25-25z" stroke-width="4.167" stroke-linejoin="miter"/><g stroke-width="2.083"><path d="M43.75 14.583v50"/><path d="M43.75 46.875L25 56.25h37.5l-18.75-9.375zm0-12.5L62.5 22.917l-17.708 3.125L25 22.917l18.75 11.458z"/><path d="M68.75 39.584L43.75 50l-25-10.417 25-10.417 25 10.417z"/></g></g><g fill-rule="nonzero"><use xlink:href="#C" fill="#d22f27" stroke="#fff" stroke-width="2.083"/><g stroke="none" fill="#1e50a0"><path d="M40.625 22.917h6.25V56.25h-6.25z"/><path d="M54.166 34.375v6.25H33.333v-6.25z"/></g></g><g fill="none"><use xlink:href="#C" stroke="#fff" stroke-width="2.083"/><path d="M0 0h129.167v79.167H0z" stroke-width="4.167"/></g></symbol><defs ><path id="C" d="M33.333 22.917h20.833 0v22.917A10.42 10.42 0 0 1 43.75 56.25a10.42 10.42 0 0 1-10.417-10.417V22.917h0z"/></defs></svg>