<svg xmlns="http://www.w3.org/2000/svg" xmlns:xlink="http://www.w3.org/1999/xlink" viewBox="0 0 134.167 84.167" fill="#fff" fill-rule="evenodd" stroke="#000" stroke-linecap="round" stroke-linejoin="round"><style><![CDATA[.B{fill-rule:nonzero}]]></style><use xlink:href="#A" x="2.083" y="2.083"/><symbol id="A" overflow="visible"><path d="M.667 0h128.5v78.758H.667z" fill="#61b2e4" stroke="none" class="B"/><g stroke="#92d3f5"><g fill="none" stroke-width="2.402"><path d="M40.76 33.204c0-13.383 10.774-24.156 24.156-24.156s24.156 10.774 24.156 24.156-10.774 24.156-24.156 24.156S40.76 46.587 40.76 33.204z"/><path d="M46.798 33.204a18.08 18.08 0 0 1 18.119-18.119 18.08 18.08 0 0 1 18.119 18.119 18.08 18.08 0 0 1-18.119 18.119 18.08 18.08 0 0 1-18.119-18.119z"/><path d="M64.917 57.363V9.05"/><path d="M40.758 33.204h48.312"/><path d="M47.833 50.288L82 16.125"/><path d="M82 50.288L47.833 16.125"/></g><path d="M52.838 33.204c0-6.692 5.387-12.079 12.079-12.079s12.079 5.387 12.079 12.079-5.387 12.079-12.079 12.079-12.079-5.387-12.079-12.079z" fill="#61b2e4" stroke-width="2.671" class="B"/></g><g stroke="none"><path d="M44.734 43.118c-.201-.314-.213-.714-.031-1.04a1.01 1.01 0 0 1 .902-.518h3.092a1.89 1.89 0 0 0 1.375-.552c.364-.363.563-.86.552-1.375a1.89 1.89 0 0 1 1.927-1.928c1.927 0 1.927 5.783 3.854 7.708s1.927 3.854 0 3.854a7.08 7.08 0 0 1-5.783-1.927c-1.408-1.408-4.875-2.817-5.888-4.225zm9.35-5.771c-.812-.455-1.161-1.441-.817-2.306.837-2.067 2.5-5.512 4.117-5.512 2.344 0 2.344-4.687 7.031 0s-2.344 4.688-2.344 7.031 2.344 0 4.688 0 2.344 2.344-2.344 2.344c-4.55 0 4.167 6.621-10.333-1.556zm16.471 11.681a4.03 4.03 0 0 1-5.417-3.611c0-3.61 3.61-1.806 3.61-3.61s0-5.417 1.806-5.417 0-1.806 0-3.611 3.61-3.61 3.61-3.61 3.61-1.804 5.417 0 0 3.61 0 5.417 3.61 1.806 0 3.61-4.513 2.708-2.708 2.708 5.417 1.806 5.417 3.611 0 3.61-1.806 1.806-1.806 0-1.806 1.804 0 5.417-3.61 5.417-3.333-5-4.513-4.514zm6.592-28.473c-.154-.946-1.715-5.146 3.429-1.715s5.146 6.86 3.429 6.86-6.583-3.452-6.861-5.146zm-3.431 1.735s0-3.429 1.715 0 5.146 3.429 5.146 5.146c0 1.188-2.471-.094-3.988-.994a6.15 6.15 0 0 1-2.502-2.656 3.63 3.63 0 0 1-.371-1.498zm-5.147-9.451c0-.476.765-.858 1.715-.858s1.715.383 1.715.858-.765.858-1.715.858-1.715-.383-1.715-.858z" class="B"/><path d="M64.475 28.598c1.079.446 2.333 2.333 4.667 0s2.333 2.333 0 2.333 2.333 2.333 0 2.333-8.958-6.452-4.667-4.667zM97.902 15.5c-1.85-2.511-4.199-4.614-6.898-6.177l-1.542-.833a1.16 1.16 0 0 0-1.533 1.581l3.75 8.167a29.89 29.89 0 0 1-25.158 43.175l-.804.029-.798.013-.798-.013-.804-.029A29.89 29.89 0 0 1 38.159 18.24l3.75-8.167a1.16 1.16 0 0 0-1.533-1.581l-1.542.833c-2.699 1.563-5.048 3.666-6.898 6.177-4.39 5.804-6.52 13.007-5.992 20.265q.015.183.029.369c.966 10.929 6.493 20.946 15.223 27.592a17.3 17.3 0 0 0 19.488 1.24 7.76 7.76 0 0 1 2.919-1.088l.152-.033a7.98 7.98 0 0 1 2.338 0c.052.008.104.025.154.033 1.036.162 2.028.532 2.917 1.088a17.3 17.3 0 0 0 19.487-1.24c8.73-6.646 14.256-16.662 15.223-27.592q.017-.208.029-.369c.527-7.258-1.603-14.461-5.994-20.265z" class="B"/></g><path d="M83.834 64.038c-1.385.611-2.901.862-4.408.731a11.04 11.04 0 0 1-3.925-1.154 31.88 31.88 0 0 0-3.356-1.363c-1.394-.503-2.866-.76-4.348-.758a15.43 15.43 0 0 0-1.879.2c-.333.056-.662.14-.981.25l-.021.004-.021-.004c-.32-.11-.648-.194-.981-.25-.622-.105-1.249-.172-1.879-.2-1.482-.002-2.954.255-4.348.758-1.144.39-2.264.845-3.356 1.363a11.04 11.04 0 0 1-3.925 1.154c-1.508.131-3.024-.121-4.408-.731-.312-.142-.604-.317-.954-.5.189.241.403.462.638.658.636.602 1.351 1.113 2.125 1.521a9.08 9.08 0 0 0 3.292 1.056c1.866.173 3.742-.208 5.394-1.094a25.14 25.14 0 0 0 2.869-1.846 16 16 0 0 1 1.746-1.09c.804-.433 1.742-.545 2.625-.315.063.017.125.042.233.083-2.512 1.195-4.809 2.795-6.8 4.737-.298.233-1.604 1.313-1.604 2.175a.88.88 0 0 0 .585.892l.025.01a.85.85 0 0 0 .365.073c.064-.001.128-.014.188-.038a1.11 1.11 0 0 0 .533-.294 4.9 4.9 0 0 0 .638-.65c.572-.773 1.214-1.491 1.919-2.146l4.104-3.64c.121-.077.25-.146.375-.208a1.15 1.15 0 0 1 1.258 0l.375.208 4.104 3.64c.705.654 1.347 1.373 1.919 2.146a4.89 4.89 0 0 0 .637.65 1.11 1.11 0 0 0 .533.294c.06.024.123.036.188.038a.85.85 0 0 0 .365-.073l.021-.01a.88.88 0 0 0 .585-.892c0-.865-1.308-1.942-1.604-2.175-1.991-1.942-4.288-3.543-6.8-4.737l.233-.083c.883-.23 1.821-.118 2.625.315a16 16 0 0 1 1.746 1.09 25.14 25.14 0 0 0 2.869 1.846c1.652.887 3.529 1.267 5.396 1.094a9.08 9.08 0 0 0 3.292-1.056c.774-.407 1.489-.919 2.125-1.521.235-.197.449-.417.638-.658l-.958.5z" stroke="#fff" stroke-width="1.431" class="B"/><path d="M0 0h129.167v79.167H0z" fill="none" stroke-width="4.167"/></symbol></svg>