<svg xmlns="http://www.w3.org/2000/svg" xmlns:xlink="http://www.w3.org/1999/xlink" viewBox="0 0 134.167 84.167" fill="#fff" fill-rule="evenodd" stroke="#000" stroke-linecap="round" stroke-linejoin="round"><use xlink:href="#A" x="2.083" y="2.083"/><symbol id="A" overflow="visible"><g stroke="none" fill-rule="nonzero"><path d="M0 0h129.167v79.167H0z" fill="#5c9e31"/><path d="M112.548 39.631L64.305 70.11 16.617 40.189 64.861 9.71l47.688 29.921z" fill="#fcea2b"/><path d="M45.833 39.583a18.71 18.71 0 0 1 18.75-18.75 18.71 18.71 0 0 1 18.75 18.75 18.71 18.71 0 0 1-18.75 18.75 18.71 18.71 0 0 1-18.75-18.75z" fill="#1e50a0"/><path d="M81.584 47.463c.687-1.499 1.175-3.081 1.45-4.706-3.139-6.561-9.093-11.336-16.179-12.974s-14.532.038-20.232 4.555a18.72 18.72 0 0 0-.735 4.196c5.606-4.599 13.059-6.273 20.093-4.512s12.82 6.746 15.6 13.444z"/></g><path d="M0 0h129.167v79.167H0z" fill="none" stroke-width="4.167"/></symbol></svg>