<svg xmlns="http://www.w3.org/2000/svg" xmlns:xlink="http://www.w3.org/1999/xlink" viewBox="0 0 134.167 84.167" fill="#fff" fill-rule="evenodd" stroke="#000" stroke-linecap="round" stroke-linejoin="round"><use xlink:href="#A" x="2.083" y="2.083"/><symbol id="A" overflow="visible"><g stroke="none" fill-rule="nonzero"><path d="M0 0h129.167v79.167H0z" fill="#1e50a0"/><path d="M0 0h129.167v10.417H0zm0 18.75h129.167v8.333H0zm0 16.667h129.167v8.333H0zm0 16.667h129.167v8.333H0z"/><path d="M0 68.75h129.167v10.417H0zM0 .004h43.75V43.75H0z"/></g><path d="M21.45 20.616L25 15.7l-2.483 5.533 5.533-2.483-4.917 3.55 6.033.617-6.033.617 4.917 3.55-5.533-2.483L25 30.133l-3.55-4.917-.617 6.033-.617-6.033-3.55 4.917L19.15 24.6l-5.533 2.483 4.917-3.55-6.033-.617 6.033-.617-4.917-3.55 5.533 2.483-2.483-5.533 3.55 4.917.617-6.033.617 6.033z" fill="#f1b31c" stroke="#f1b31c" fill-rule="nonzero" stroke-width="2.083"/><path d="M0 0h129.167v79.167H0z" fill="none" stroke-width="4.167"/></symbol></svg>