<?xml version="1.0" encoding="UTF-8"?>
<!DOCTYPE svg PUBLIC "-//W3C//DTD SVG 1.0//EN" "http://www.w3.org/TR/2001/REC-SVG-20010904/DTD/svg10.dtd">
<!-- Creator: CorelDRAW 2021 (64 Bit) -->
<svg xmlns="http://www.w3.org/2000/svg" xml:space="preserve" width="127.919mm" height="116.894mm" version="1.0" style="shape-rendering:geometricPrecision; text-rendering:geometricPrecision; image-rendering:optimizeQuality; fill-rule:evenodd; clip-rule:evenodd"
viewBox="0 0 8482.98 7751.82"
 xmlns:xlink="http://www.w3.org/1999/xlink"
 xmlns:xodm="http://www.corel.com/coreldraw/odm/2003">
 <defs>
  <style type="text/css">
   <![CDATA[
    .fil0 {fill:#5064A8}
    .fil1 {fill:#F0EDE2}
    .fil2 {fill:#FEFEFE;fill-rule:nonzero}
   ]]>
  </style>
 </defs>
 <g id="Camada_x0020_1">
  <metadata id="CorelCorpID_0Corel-Layer"/>
  <path class="fil0" d="M2227.11 5375.7c-94.38,158.03 -526.53,744.17 -554.03,854.84l1907.93 0.36c326.08,720.69 792.92,591.26 1140.02,1007.44 107.25,128.61 188.45,307.62 316.53,400.16 313.32,226.39 853.3,70.88 1114.4,-95.57 144.57,-92.16 302.53,-187.34 250.66,-432.06 -42.83,-202.06 -153.81,-355.67 -197.23,-535.81 560.65,-27.23 1035.15,-385.23 1353.51,-633.54 552.78,-431.16 694.38,-686.61 593.82,-1364.07 100.72,-134.37 190.62,-174.4 266.23,-397.45 172.98,-510.26 -68.45,-767.57 13.73,-1153.24 169.77,-796.7 -394.14,-907.87 -468.44,-1120.19 -32.06,-91.59 -65.46,-169.15 -108.84,-238.34 -78.37,-124.98 -201.32,-255.13 -320.51,-334.31 -71.38,-47.4 -129.8,-78.14 -215.87,-110.9 -292.87,-111.46 -297.72,-589.81 -1022.17,-662.05 -136.83,-13.64 -126.83,-34.23 -214.1,-108.21 -486.95,-412.76 -1132.59,-579.74 -1762.47,-346.99 -206.74,76.39 -407.68,-113.48 -829.46,-14.5 -90.53,21.25 -197.51,76.34 -265.52,83.33 -259.64,26.69 -312.22,-19.77 -546.6,108.84 -74.78,41.04 -129.43,107.59 -209.24,118.74 -122.15,17.06 -173.75,-6.6 -311.33,35.61 -186.31,57.16 -283,155.38 -392.27,262.96 -179.59,176.83 -719.29,134.83 -1118.14,887.4 -72.67,137.11 -121.73,336.87 -223.06,432.5 -272.67,257.33 -423.18,436.29 -424.65,898.83 -0.7,218.59 65.5,415.76 54.07,613.92 -25.13,436.06 71.85,807.49 295.11,1036.19 90.12,92.32 245.13,188.87 415.75,239.41 224.71,66.57 473.18,24.11 612.85,62.45 53.6,14.71 146.89,74.29 226.91,100.69 416.44,137.38 343.62,-41.37 492.23,183.62 44.07,66.7 110.24,144.81 130.18,219.91z"/>
  <path class="fil1" d="M4521.7 1634.37c-45.34,323.42 -173.46,506.45 -387.12,615.42 -492.75,251.29 -583.49,-185.16 -346.52,-242.05 196.7,-47.22 233.79,-20.5 327.74,-164.2 91.08,-139.31 71.73,-236.42 31.01,-393.94 -78.25,-302.75 -112.2,-556.67 -127.2,-880.54 -319.9,-98.94 -389.4,-55.12 -641.12,64.03 -218.56,103.46 -360,-116.65 -596.92,157.86 20.88,85.08 140.92,246.02 196.02,413.67 90.39,275.03 173.47,82.23 360.85,169.33 81.86,38.04 224.84,339.67 -255.45,304.54 -153.41,-11.22 -160.63,-55.18 -265.09,-88.41 -81.16,63.15 -363.49,277.12 -469.3,99.07 -126.69,-213.19 188.26,-265.16 282.89,-386.51 9.46,-112.03 -136.73,-363.93 -202.47,-428.68 -234.52,-12.32 -322.93,171.76 -435.56,259.3 -150.97,117.34 -584.42,123.12 -848.02,543.09 -72.41,115.35 -194.25,348.22 -225.99,485.93 167.89,188.5 562.84,267.83 735.47,167.05 3.55,-2.08 9.66,-7.28 12.43,-9.09 116.93,-75.76 -47.32,-440.46 138.47,-516.7 258.01,-105.87 232.23,222.26 237.27,398.86 436.14,-28.32 624.84,-20.84 878.73,224.2 83.29,80.39 164.04,310.85 -44.21,332.62 -156.34,16.34 -191.02,-155.41 -371.53,-222.58 -483.52,-179.93 -924.54,435.19 -1635.57,-2.57 -67,-41.26 -112.32,-91.39 -184.57,-123.98 -185.07,163.69 -222.95,337.62 -203.32,680.7 168.19,-10.5 233.58,-30.63 396.07,30.39 432.73,162.5 212.51,429.69 33.79,373.99 -151.78,-47.3 -129.65,-124.89 -364.37,-78.6 -46.12,172.07 -31.15,471.83 30.47,637.36 124.94,335.61 454.95,361.27 766.06,337.8 199.29,-15.03 157.08,10.39 288.37,80.86 110.21,59.17 554.46,30.49 714.16,30.16 101.44,-26.66 5.58,-156.11 171.91,-346.75 64.95,-74.44 210.26,-173.22 344.46,-191.44 165.72,-22.48 252.94,166.21 144.55,270.52 -122.19,117.58 -271.2,33.44 -284.15,267.73l1225.67 -0.09c51.23,-268.68 288.2,-509.8 425.21,-523.95 155.06,-16.02 237.86,137.11 150.33,258.32 -63.69,88.21 -199.03,116.95 -225.62,265.78l811.82 -0.59c16.44,-160.8 33.28,-320.01 185.06,-330.84 226.55,-16.16 158.43,196.33 148.53,331.4 85.16,0.02 357.05,11.05 421.62,-3.81 112.74,-25.96 101.53,-149.57 270.27,-162.62 230.62,-17.84 282.67,243.73 632.59,117.57 6.92,-151.46 -57.63,-288.74 -24.68,-449.03 85.87,-417.77 541.58,-313.34 404.11,-50.76 -107.97,206.22 -92.97,12.87 -55.14,408.75 968.74,3.74 959.93,-318.73 854.32,-1006.1 -238.52,23.36 -845.36,37.17 -815.42,-251.2 33.77,-325.33 323.03,65.21 824.79,-101.4 153.71,-557.16 -226.95,-542.7 -369.66,-740.35 -74.28,-102.85 -59.38,-294.1 -165.28,-427.64 -89.81,-113.25 -220.61,-181.47 -393.84,-210.19 -186.95,432.19 135.65,474.46 98.75,672.16 -22.31,119.55 -178.21,171.84 -271.75,83.93 -73.29,-68.88 -106.94,-196.42 -169.32,-273.6 -155.32,60.13 -228.03,143.96 -452.34,54.86 -71.99,-28.6 -134.34,-64.35 -160.34,-125.55 -34.24,-80.58 -0.21,-165.1 61.61,-201.72 177.73,-105.35 226.81,163.2 420.32,-50.32 61.73,-68.1 190.66,-280.45 219.82,-401.3 -103.27,-169.1 -268.91,-345.92 -559.82,-361.6 -63.93,74.14 -89.58,209.93 -255.94,392.37 -311.69,341.83 -580.81,252.1 -536.46,37.41 20.33,-98.41 99.96,-108.75 172.34,-156.26 105.83,-69.47 255.49,-235.63 291.12,-382.67 -290.43,-333.35 -867.49,-613.5 -1458.47,-356.38 -93.21,40.56 -83.84,57.74 -77.98,171.62 3.81,74.07 15.74,150.57 27.26,223.55 27.72,175.53 16.05,289.79 164.22,344.95 135.61,50.49 287.06,36.76 295.68,191.49 10.55,189.15 -167.55,165.48 -315.6,145.39z"/>
  <path class="fil1" d="M6255.99 5375.7l392.52 586.24c178.6,-37.59 561.62,-346.71 685.37,-450.2 89.78,-75.08 215.76,-188.47 289.4,-283.91 97.52,-126.38 146.55,-237.65 73.74,-433 -81.94,-9.01 -327.56,37.24 -458.28,37.55 -379.1,0.89 -247.47,111.8 -615.36,129.21 -120.32,5.69 -118.01,13.59 -171.86,98.05 -51.34,80.5 -174.3,232.94 -195.53,316.05z"/>
  <path class="fil1" d="M5315.08 7257.4c255.47,33.5 411.39,10.92 586.24,-121.49l-283.64 -711.55c-40,-82.38 -102.4,-117.26 -152.78,-192.58l-1322.23 -0.88c44.32,109.65 167.93,188.02 296.96,246.67 151.2,68.76 230.64,101.94 356.93,194.55 198.47,145.53 384.45,350.95 518.52,585.28z"/>
  <path class="fil0" d="M1996.93 3696.42c180.81,72.9 290.39,201.73 651.89,15.58 125.24,-64.49 432.1,-275.91 415.73,-421.74 -12.18,-108.57 -131.91,-176.13 -241.67,-119.94 -53.27,27.28 -361.48,367.01 -552.56,302.97 -98.65,-33.07 -113.19,-172.53 -160.2,-275.37 -47.21,-103.29 -186.35,-144.24 -270.03,-48 -69.21,79.6 -33.28,239.46 -91.21,338.83 -45.89,78.71 -147.93,114.25 -242.93,164.71 -157.07,83.42 -442.86,306.08 -273.57,463.52 37.31,34.71 80.35,51.16 142.01,40.18 86.59,-15.42 88.37,-45.92 126.71,-98.73 119.17,-164.16 385.48,-160.4 495.82,-362.01z"/>
  <path class="fil0" d="M4489.82 2551.16c0.01,207.49 127.79,437.82 36.62,582.67 -148.43,235.84 -358.84,22.59 -433.72,204.51 -93.99,228.32 201.76,286.6 378.26,231.35 234.21,-73.33 246.55,-174.08 373.22,-325.37 133.04,32.85 440.9,197.04 544.39,55.57 173.38,-236.97 -206.42,-273.23 -333.82,-325.85 -229.09,-94.62 -215.45,-208.43 -239.67,-481.84 -19.43,-219.27 -325.3,-238.46 -325.28,58.95z"/>
  <path class="fil0" d="M6256.47 3630.87c120.47,49.89 398.44,173.84 490.71,24.48 149.01,-241.17 -185.1,-248.84 -292.62,-295.64 -41.22,-42.29 62.69,-217.07 -73.72,-441.86 -116.47,-191.94 -602.75,-561.56 -651.81,-238.55 -23.91,157.49 160.84,212.58 266.84,296.08 347.7,273.85 -60.62,461.41 -234.52,615.84 -136.07,120.84 -34.93,336.34 154.16,276.69 92.45,-29.16 259.07,-185.85 340.96,-237.04z"/>
  <path class="fil0" d="M5318.77 5377.14c224.81,23.22 474.94,18.64 476.91,-247.02 1.91,-257.45 -246.63,-264.44 -475.13,-245.14l-1.78 492.16z"/>
  <path class="fil0" d="M4076.97 5358.61c224.34,0.31 433.04,0.09 445.13,-228.52 13.79,-260.97 -221.45,-248.67 -442.35,-249.89l-2.77 478.42z"/>
  <path class="fil0" d="M2799.87 5284.46c207.29,12.26 470.89,32.04 475.65,-195.31 5.09,-243.47 -262.05,-223.77 -474.59,-203.45l-1.06 398.77z"/>
  <rect class="fil0" x="764.94" y="4809.03" width="7201.64" height="1378.79"/>
  <path class="fil2" d="M1116.75 4701.37l344.74 0c108.93,0 191.46,8.42 247.61,25.54 56.15,16.84 101.35,51.37 135.88,103.03 34.53,51.93 51.65,135.31 51.65,250.41 0,77.76 -12.07,131.95 -36.49,162.54 -24.42,30.88 -72.71,54.18 -144.58,70.74 80.29,18.25 134.75,48.28 163.39,90.12 28.63,42.11 42.95,106.4 42.95,193.43l0 123.52c0,90.12 -10.38,156.65 -30.88,200.17 -20.49,43.23 -53.06,72.99 -97.97,88.99 -44.92,16 -137,23.86 -276.24,23.86l-400.05 0 0 -1332.36zm346.99 227.39l0 296.45c14.6,-0.56 25.83,-0.84 33.97,-0.84 33.13,0 54.46,-8.42 63.45,-24.99 9.26,-16.84 13.75,-64.85 13.75,-143.73 0,-41.83 -3.65,-71.03 -11.23,-87.87 -7.58,-16.56 -17.41,-27.23 -29.48,-31.72 -12.08,-4.21 -35.66,-6.74 -70.47,-7.3zm0 503.64l0 373.94c47.73,-1.68 78.32,-9.26 91.52,-23.02 13.19,-13.76 19.65,-47.73 19.65,-101.63l0 -124.65c0,-57.27 -5.9,-91.8 -17.69,-104.15 -11.79,-12.07 -42.95,-18.81 -93.48,-20.49z"/>
  <path id="_1" class="fil2" d="M2046.82 4701.37l245.08 0c163.39,0 273.99,6.17 331.83,18.81 57.83,12.63 105,44.92 141.49,96.85 36.49,51.66 54.74,134.47 54.74,247.89 0,103.59 -12.91,173.21 -38.74,208.87 -25.54,35.65 -76.36,56.98 -152.16,64.01 68.5,17.12 114.82,39.86 138.41,68.5 23.58,28.36 38.18,54.74 43.79,78.6 5.9,23.87 8.7,89.56 8.7,197.07l0 351.76 -321.72 0 0 -443.28c0,-71.31 -5.62,-115.38 -16.84,-132.51 -10.95,-17.12 -40.15,-25.54 -87.59,-25.54l0 601.33 -346.99 0 0 -1332.36zm346.99 227.39l0 296.45c38.74,0 65.69,-5.33 81.13,-16 15.44,-10.67 23.3,-45.48 23.3,-104.15l0 -73.27c0,-42.39 -7.58,-70.18 -22.46,-83.38 -14.87,-13.19 -42.39,-19.65 -81.97,-19.65z"/>
  <path id="_2" class="fil2" d="M3551.55 4701.37l198.2 1332.36 -354 0 -18.81 -239.18 -124.92 0 -18.81 239.18 -358.5 0 175.74 -1332.36 501.11 0zm-183.88 857.36c-16.56,-151.03 -33.97,-338 -52.49,-561.18 -34.25,256.03 -55.86,443 -65.13,561.18l117.62 0z"/>
  <path id="_3" class="fil2" d="M3809.27 4701.37l348.95 0c94.33,0 166.76,7.3 217.57,22.18 50.53,14.88 88.71,36.21 114.25,64.01 25.55,28.08 42.67,62.04 51.94,101.63 8.99,39.86 13.48,101.34 13.48,184.72l0 115.95c0,84.78 -8.7,146.82 -26.39,185.56 -17.41,39.03 -49.69,69.06 -96.3,89.84 -46.88,20.78 -108.08,31.16 -183.6,31.16l-92.92 0 0 537.32 -346.99 0 0 -1332.36zm346.99 227.39l0 339.41c9.83,0.56 18.25,0.84 25.27,0.84 31.73,0 53.62,-7.86 65.97,-23.58 12.08,-15.44 18.25,-48.01 18.25,-97.42l0 -109.76c0,-45.48 -7.02,-75.23 -21.33,-88.99 -14.04,-13.75 -43.52,-20.49 -88.15,-20.49z"/>
  <path id="_4" class="fil2" d="M5463.35 5282.49l-346.99 0 0 -231.33c0,-67.38 -3.65,-109.2 -10.95,-126.04 -7.3,-16.57 -23.58,-24.99 -48.57,-24.99 -28.07,0 -46.04,10.11 -53.62,30.32 -7.58,20.49 -11.51,64.29 -11.51,131.66l0 618.18c0,64.85 3.93,106.96 11.51,126.89 7.58,19.65 24.7,29.48 51.09,29.48 25.55,0 42.4,-9.83 50.25,-29.76 7.86,-19.66 11.79,-66.26 11.79,-139.53l0 -167.6 346.99 0 0 51.94c0,138.12 -9.83,236.09 -29.2,293.64 -19.37,57.83 -62.6,108.37 -129.14,151.88 -66.81,43.51 -148.79,65.13 -246.49,65.13 -101.34,0 -185,-18.25 -250.98,-55.02 -65.69,-36.78 -109.49,-87.59 -130.82,-152.72 -21.33,-65.13 -32,-162.82 -32,-293.36l0 -389.1c0,-96.01 3.37,-167.88 9.83,-215.88 6.74,-48.01 26.11,-94.33 58.95,-138.68 32.56,-44.36 77.76,-79.45 135.59,-105 57.83,-25.54 124.36,-38.18 199.6,-38.18 101.91,0 186.13,19.65 252.66,59.23 66.25,39.3 109.76,88.43 130.82,147.39 20.78,58.95 31.16,150.48 31.16,274.84l0 126.61z"/>
  <polygon id="_5" class="fil2" points="5934.42,4701.37 5934.42,6033.73 5587.43,6033.73 5587.43,4701.37 "/>
  <polygon id="_6" class="fil2" points="6716.82,4701.37 6716.82,6033.73 6369.83,6033.73 6369.83,4701.37 "/>
  <path id="_7" class="fil2" d="M7452.9 4701.37l198.2 1332.36 -354 0 -18.81 -239.18 -124.92 0 -18.81 239.18 -358.5 0 175.74 -1332.36 501.11 0zm-183.88 857.36c-16.56,-151.03 -33.97,-338 -52.49,-561.18 -34.25,256.03 -55.86,443 -65.13,561.18l117.62 0z"/>
 </g>
</svg>
