<?xml version="1.0" encoding="UTF-8"?>
<!DOCTYPE svg PUBLIC "-//W3C//DTD SVG 1.1//EN" "http://www.w3.org/Graphics/SVG/1.1/DTD/svg11.dtd">
<!-- Creator: CorelDRAW 2021 (64 Bit) -->
<svg xmlns="http://www.w3.org/2000/svg" xml:space="preserve" width="105.478mm" height="17.7842mm" version="1.1" style="shape-rendering:geometricPrecision; text-rendering:geometricPrecision; image-rendering:optimizeQuality; fill-rule:evenodd; clip-rule:evenodd"
viewBox="0 0 10210.69 1721.59"
 xmlns:xlink="http://www.w3.org/1999/xlink"
 xmlns:xodm="http://www.corel.com/coreldraw/odm/2003">
 <defs>
  <style type="text/css">
   <![CDATA[
    .fil0 {fill:#FEFEFE;fill-rule:nonzero}
   ]]>
  </style>
 </defs>
 <g id="Camada_x0020_1">
  <metadata id="CorelCorpID_0Corel-Layer"/>
  <path class="fil0" d="M1720.36 1343.33c0,38.53 -6.55,79.51 -20.08,123.76 -13.12,43.85 -34.84,84.83 -64.75,122.53 -29.91,37.7 -68.85,68.85 -116.79,94.25 -48.35,25 -106.96,37.71 -176.63,37.71l-1185.16 0c-22.13,0 -43.03,-4.09 -62.28,-11.89 -19.26,-8.19 -35.65,-19.25 -50,-33.19 -13.93,-13.93 -24.99,-30.74 -32.79,-49.58 -8.19,-19.26 -11.88,-40.16 -11.88,-62.7l0 -1406.86c0,-21.72 3.69,-42.22 11.88,-61.47 7.79,-19.26 18.86,-36.07 32.79,-50.41 14.35,-14.35 30.74,-25.41 50,-33.61 19.25,-7.78 40.15,-11.88 62.28,-11.88l1044.6 0c38.52,0 79.91,6.55 123.76,20.48 43.84,13.52 84.83,35.25 122.94,65.16 38.11,30.33 69.66,69.26 95.07,117.21 24.99,47.95 37.71,106.96 37.71,176.62l0 58.61c0,55.32 -9.02,114.74 -27.46,178.27 -18.44,63.93 -48.35,123.76 -88.92,180.72 35.25,21.72 68.02,47.54 98.76,78.28 31.15,30.32 58.2,65.57 81.14,105.31 23.36,40.16 41.8,85.25 55.32,135.65 13.52,50.41 20.49,106.14 20.49,167.2l0 59.83zm-312.27 -59.83c0,-40.99 -6.55,-77.45 -19.26,-109.83 -12.7,-32.37 -30.74,-60.24 -54.09,-83.6 -22.94,-23.36 -51.22,-40.98 -84.01,-53.27 -32.79,-12.7 -69.67,-18.85 -110.24,-18.85l-703.63 0 0 -314.32 563.07 0c40.98,0 77.45,-6.55 110.24,-18.85 33.19,-12.29 61.05,-30.33 84.41,-53.28 22.95,-23.36 40.99,-51.22 53.28,-83.6 12.29,-32.37 18.44,-68.85 18.44,-109.82l0 -58.61c0,-45.07 -21.32,-67.62 -64.75,-67.62l-889.69 0 0 1097.46 1030.25 0c5.74,0 12.29,-0.41 20.49,-1.23 7.78,-0.82 15.16,-3.28 21.72,-6.97 6.15,-4.09 11.88,-11.06 16.8,-20.48 4.51,-9.43 6.97,-22.95 6.97,-39.76l0 -57.37z"/>
  <path id="_1" class="fil0" d="M3712.01 578.64c0,71.31 -9.01,134.83 -26.64,190.98 -17.62,55.73 -41.38,105.31 -71.31,148.34 -29.91,42.62 -64.74,79.1 -104.08,109.83 -38.93,30.32 -79.91,55.32 -122.94,74.99 -42.62,19.67 -86.06,33.6 -129.5,42.61 -43.84,8.61 -84.83,13.12 -123.35,13.12l652 563.07 -482.34 0 -650.77 -563.07 -224.58 0 0 -312.27 705.68 0c39.34,-3.28 75.4,-11.47 107.78,-24.59 32.37,-13.12 60.24,-31.14 84.01,-53.27 23.36,-22.55 41.8,-49.59 54.5,-81.14 12.71,-31.56 19.26,-67.62 19.26,-108.6l0 -197.11c0,-17.62 -2.05,-30.74 -6.55,-40.16 -4.51,-9.01 -10.25,-15.98 -16.81,-20.08 -6.97,-4.51 -13.93,-7.38 -21.72,-8.2 -7.78,-0.81 -14.75,-1.23 -20.9,-1.23l-1030.25 0 0 1409.73 -312.27 0 0 -1564.22c0,-21.72 4.1,-42.22 12.29,-61.47 7.79,-19.26 18.86,-36.07 32.79,-50.41 13.93,-14.35 30.74,-25.41 50,-33.61 19.25,-7.78 40.15,-11.88 62.28,-11.88l1185.16 0c69.67,0 128.28,12.7 176.22,37.7 48.35,25.41 87.29,56.97 117.2,95.08 29.91,37.7 51.64,78.68 64.75,122.94 13.52,43.84 20.08,85.24 20.08,123.75l0 199.17z"/>
  <path id="_2" class="fil0" d="M5714.73 1721.59l-312.27 0 0 -422.51 -1097.46 0 0 422.51 -312.27 0 0 -861c0,-125.4 21.72,-241.38 64.75,-346.69 43.44,-105.73 103.27,-196.71 180.31,-272.52 76.64,-76.22 167.62,-135.24 272.52,-177.86 104.91,-42.21 219.24,-63.51 343.41,-63.51l703.64 0c21.31,0 41.8,4.09 61.05,11.88 19.26,8.2 36.07,19.26 50.41,33.61 14.35,14.34 25.82,31.14 33.61,50.41 8.19,19.25 12.29,39.75 12.29,61.47l0 1564.22zm-1409.73 -734.78l1097.46 0 0 -674.95 -548.74 0c-9.84,0 -29.91,1.65 -60.65,4.51 -30.74,2.87 -66.39,9.84 -106.96,20.9 -40.16,11.06 -82.78,28.28 -127.86,51.64 -44.67,23.36 -86.06,55.32 -123.76,95.89 -37.29,40.98 -68.43,92.21 -93.02,153.27 -24.18,61.05 -36.48,135.24 -36.48,222.52l0 126.21z"/>
  <path id="_3" class="fil0" d="M7792.84 720.44c0,70.89 -9.01,134.82 -26.64,190.56 -17.62,56.14 -41.38,105.73 -71.31,148.34 -29.91,43.03 -64.74,79.51 -103.68,109.83 -39.34,30.74 -80.32,55.32 -123.35,74.58 -42.62,19.26 -86.06,33.19 -129.5,41.8 -43.44,9.02 -84.41,13.52 -122.94,13.52l-706.09 0 0 -312.27 706.09 0c39.76,-3.27 76.22,-11.47 108.6,-24.59 32.37,-13.11 60.24,-31.14 83.6,-53.27 22.94,-22.54 40.98,-49.58 53.68,-81.14 13.12,-31.56 19.26,-67.62 19.26,-107.37l0 -141.8c-4.09,-39.34 -12.29,-75.4 -24.99,-108.19 -13.12,-32.78 -30.33,-60.65 -52.46,-84.01 -21.72,-22.95 -48.35,-41.39 -79.91,-54.5 -31.14,-13.12 -67.21,-20.09 -107.78,-20.09l-703.63 0c-41.8,0 -73.36,11.06 -95.07,32.79 -21.32,21.31 -32.38,52.86 -32.38,93.44l0 1283.51 -311.86 0 0 -1283.51c0,-79.91 14.34,-147.94 43.84,-204.08 29.1,-56.15 65.58,-101.22 109.01,-135.64 43.85,-34.42 90.98,-59.43 142.21,-74.99 51.22,-15.58 98.76,-23.36 141.79,-23.36l706.09 0c70.49,0 133.6,9.01 189.75,27.05 55.73,18.02 105.31,41.8 147.94,72.12 43.03,29.92 79.51,64.35 109.42,103.69 29.91,39.34 54.92,80.32 74.59,122.94 19.67,43.03 33.6,86.06 42.61,129.9 8.61,43.45 13.12,84.42 13.12,122.94l0 141.8z"/>
  <path id="_4" class="fil0" d="M9600.9 1721.59l-1126.14 0c-28.68,0 -59.83,-3.28 -93.02,-10.24 -33.19,-6.56 -65.98,-17.21 -98.35,-31.96 -32.38,-14.35 -63.52,-32.79 -93.03,-55.74 -29.91,-22.54 -55.73,-50.41 -78.68,-82.78 -22.95,-32.37 -40.98,-70.08 -54.5,-112.7 -13.94,-43.03 -20.49,-91.38 -20.49,-144.65l0 -845.43c0,-28.68 3.28,-59.83 10.24,-93.03 6.56,-33.19 17.21,-65.97 31.56,-98.35 14.35,-32.37 33.19,-63.51 56.55,-93.02 23.36,-29.51 50.81,-55.74 83.6,-78.68 32.37,-22.95 69.67,-40.99 112.28,-54.51 42.22,-13.93 90.16,-20.48 143.84,-20.48l1126.14 0 0 311.86 -1126.14 0c-40.98,0 -72.12,11.06 -93.44,32.79 -21.71,21.31 -32.78,53.27 -32.78,95.89l0 842.97c0,39.75 11.06,70.89 33.19,93.02 22.13,21.72 52.86,32.79 93.02,32.79l1126.14 0 0 312.27z"/>
  <polygon id="_5" class="fil0" points="10210.69,1721.59 9898.42,1721.59 9898.42,0 10210.69,0 "/>
 </g>
</svg>
