<?xml version="1.0" encoding="UTF-8"?>
<!DOCTYPE svg PUBLIC "-//W3C//DTD SVG 1.0//EN" "http://www.w3.org/TR/2001/REC-SVG-20010904/DTD/svg10.dtd">
<!-- Creator: CorelDRAW 2021 (64 Bit) -->
<svg xmlns="http://www.w3.org/2000/svg" xml:space="preserve" width="105.706mm" height="32.212mm" version="1.0" style="shape-rendering:geometricPrecision; text-rendering:geometricPrecision; image-rendering:optimizeQuality; fill-rule:evenodd; clip-rule:evenodd"
viewBox="0 0 14381.94 4382.63"
 xmlns:xlink="http://www.w3.org/1999/xlink"
 xmlns:xodm="http://www.corel.com/coreldraw/odm/2003">
 <defs>
  <style type="text/css">
   <![CDATA[
    .str0 {stroke:#373435;stroke-width:27.21;stroke-miterlimit:22.9256}
    .fil0 {fill:#2A344E}
    .fil1 {fill:#2A344E;fill-rule:nonzero}
   ]]>
  </style>
 </defs>
 <g id="Camada_x0020_1">
  <metadata id="CorelCorpID_0Corel-Layer"/>
  <path class="fil0 str0" d="M6170.29 13.61l7626.32 0c314.47,0 571.73,257.27 571.73,571.73l0 2128.84c0,314.47 -257.27,571.73 -571.73,571.73l-7626.32 0c-314.47,0 -571.73,-257.27 -571.73,-571.73l0 -2128.84c0,-314.47 257.27,-571.73 571.73,-571.73zm2236.77 2365.18c0,54.15 -9.21,111.74 -28.22,173.95 -18.44,61.63 -48.97,119.23 -91.01,172.22 -42.04,52.98 -96.76,96.76 -164.15,132.46 -67.96,35.14 -150.33,52.99 -248.25,52.99l-1665.7 0c-31.1,0 -60.48,-5.76 -87.54,-16.71 -27.08,-11.51 -50.11,-27.06 -70.27,-46.65 -19.58,-19.58 -35.13,-43.2 -46.08,-69.69 -11.51,-27.08 -16.69,-56.45 -16.69,-88.12l0 -1977.3c0,-30.53 5.18,-59.33 16.69,-86.4 10.95,-27.08 26.5,-50.69 46.08,-70.84 20.16,-20.16 43.2,-35.71 70.27,-47.24 27.06,-10.94 56.44,-16.69 87.54,-16.69l1468.15 0c54.14,0 112.31,9.21 173.95,28.79 61.62,19.01 119.23,49.54 172.79,91.58 53.57,42.63 97.91,97.35 133.62,164.74 35.13,67.39 52.99,150.33 52.99,248.23l0 82.37c0,77.76 -12.68,161.27 -38.6,250.55 -25.92,89.85 -67.96,173.95 -124.98,254 49.54,30.53 95.61,66.82 138.8,110.01 43.78,42.61 81.8,92.15 114.04,148.01 32.83,56.45 58.75,119.81 77.76,190.65 19.01,70.84 28.8,149.17 28.8,235l0 84.08zm-438.89 -84.08c0,-57.61 -9.21,-108.86 -27.08,-154.37 -17.85,-45.5 -43.2,-84.67 -76.03,-117.5 -32.25,-32.83 -71.99,-57.59 -118.07,-74.87 -46.08,-17.85 -97.92,-26.49 -154.94,-26.49l-988.93 0 0 -441.77 791.38 0c57.59,0 108.86,-9.21 154.94,-26.49 46.65,-17.28 85.81,-42.63 118.64,-74.89 32.26,-32.83 57.61,-71.99 74.89,-117.5 17.28,-45.5 25.92,-96.76 25.92,-154.36l0 -82.37c0,-63.35 -29.96,-95.03 -91.01,-95.03l-1250.43 0 0 1542.45 1447.99 0c8.07,0 17.28,-0.57 28.8,-1.73 10.94,-1.16 21.31,-4.61 30.53,-9.8 8.64,-5.76 16.69,-15.55 23.61,-28.79 6.34,-13.25 9.8,-32.26 9.8,-55.88l0 -80.63zm3359.62 -362.86c0,147.44 -25.33,282.79 -76.03,406.63 -50.68,123.84 -120.95,230.38 -210.8,320.23 -90.42,90.44 -196.98,160.12 -320.23,210.23 -122.68,50.11 -256.89,75.46 -402.03,75.46l-594.4 0c-145.14,0 -279.34,-25.35 -403.17,-75.46 -123.84,-50.11 -230.38,-119.8 -320.23,-210.23 -90.44,-89.85 -160.7,-196.4 -211.96,-320.23 -51.27,-123.84 -76.6,-259.19 -76.6,-406.63l0 -462.51c0,-146.3 25.33,-281.65 76.6,-406.06 51.27,-123.84 121.52,-230.97 211.96,-320.23 89.85,-89.28 196.4,-159.55 320.23,-210.23 123.84,-50.68 258.03,-76.03 403.17,-76.03l594.4 0c145.14,0 279.35,25.35 402.03,76.03 123.25,50.68 229.81,120.95 320.23,210.23 89.85,89.27 160.12,196.4 210.8,320.23 50.69,124.41 76.03,259.76 76.03,406.06l0 462.51zm-438.89 -462.51c0,-86.4 -13.82,-165.31 -41.47,-235.57 -27.65,-70.27 -66.23,-130.18 -116.34,-180.29 -50.11,-50.11 -110.01,-88.69 -180.86,-116.34 -70.26,-27.65 -147.44,-41.47 -231.54,-41.47l-594.4 0c-85.24,0 -162.99,13.82 -233.27,41.47 -70.26,27.65 -130.74,66.23 -181.43,116.34 -50.68,50.11 -89.85,110.01 -117.5,180.29 -27.65,70.26 -41.47,149.17 -41.47,235.57l0 462.51c0,86.4 13.82,164.72 41.47,235 27.65,70.26 66.82,130.74 117.5,180.85 50.69,50.11 111.17,88.71 181.43,116.35 70.27,27.65 148.03,41.47 233.27,41.47l590.94 0c85.25,0 163.01,-13.82 233.85,-41.47 70.26,-27.65 130.74,-66.25 180.85,-116.35 50.69,-50.11 89.85,-110.59 117.5,-180.85 27.65,-70.27 41.47,-148.6 41.47,-235l0 -462.51zm3025.57 -540.26l-966.47 0 0 1981.34 -438.89 0 0 -1981.34 -968.78 0 0 -438.3 2374.14 0 0 438.3z"/>
  <path class="fil1" d="M2418.5 1284.18c0,100.22 -12.67,189.5 -37.44,268.41 -24.76,78.33 -58.16,148.01 -100.22,208.49 -42.04,59.91 -90.99,111.17 -146.29,154.37 -54.72,42.61 -112.31,77.76 -172.79,105.4 -59.91,27.65 -120.95,47.22 -182.02,59.89 -61.62,12.1 -119.23,18.44 -173.36,18.44l916.36 791.38 -677.91 0 -914.63 -791.38 -315.64 0 0 -438.89 991.82 0c55.29,-4.61 105.97,-16.12 151.48,-34.56 45.5,-18.44 84.67,-43.77 118.07,-74.87 32.83,-31.69 58.75,-69.7 76.6,-114.04 17.86,-44.35 27.08,-95.03 27.08,-152.64l0 -277.04c0,-24.76 -2.88,-43.2 -9.21,-56.45 -6.34,-12.67 -14.41,-22.46 -23.62,-28.22 -9.8,-6.34 -19.58,-10.37 -30.53,-11.52 -10.94,-1.14 -20.73,-1.73 -29.37,-1.73l-1447.99 0 0 1981.34 -438.89 0 0 -2198.47c0,-30.53 5.77,-59.33 17.28,-86.4 10.95,-27.08 26.5,-50.69 46.08,-70.84 19.58,-20.16 43.2,-35.71 70.27,-47.24 27.06,-10.94 56.44,-16.69 87.54,-16.69l1665.7 0c97.92,0 180.29,17.85 247.68,52.98 67.96,35.71 122.68,80.07 164.72,133.63 42.04,52.98 72.57,110.59 91.01,172.79 19.01,61.62 28.22,119.8 28.22,173.93l0 279.92z"/>
  <path id="_1" class="fil1" d="M5398.55 1911.99c0,147.44 -25.33,282.79 -76.03,406.63 -50.68,123.84 -120.95,230.38 -210.8,320.23 -90.42,90.44 -196.98,160.12 -320.23,210.23 -122.68,50.11 -256.89,75.46 -402.03,75.46l-594.4 0c-145.14,0 -279.34,-25.35 -403.17,-75.46 -123.84,-50.11 -230.38,-119.8 -320.23,-210.23 -90.44,-89.85 -160.7,-196.4 -211.96,-320.23 -51.27,-123.84 -76.6,-259.19 -76.6,-406.63l0 -462.51c0,-146.3 25.33,-281.65 76.6,-406.06 51.27,-123.84 121.52,-230.97 211.96,-320.23 89.85,-89.28 196.4,-159.55 320.23,-210.23 123.84,-50.68 258.03,-76.03 403.17,-76.03l594.4 0c145.14,0 279.35,25.35 402.03,76.03 123.25,50.68 229.81,120.95 320.23,210.23 89.85,89.27 160.12,196.4 210.8,320.23 50.69,124.41 76.03,259.76 76.03,406.06l0 462.51zm-438.89 -462.51c0,-86.4 -13.82,-165.31 -41.47,-235.57 -27.65,-70.27 -66.23,-130.18 -116.34,-180.29 -50.11,-50.11 -110.01,-88.69 -180.86,-116.34 -70.26,-27.65 -147.44,-41.47 -231.54,-41.47l-594.4 0c-85.24,0 -162.99,13.82 -233.27,41.47 -70.26,27.65 -130.74,66.23 -181.43,116.34 -50.68,50.11 -89.85,110.01 -117.5,180.29 -27.65,70.26 -41.47,149.17 -41.47,235.57l0 462.51c0,86.4 13.82,164.72 41.47,235 27.65,70.26 66.82,130.74 117.5,180.85 50.69,50.11 111.17,88.71 181.43,116.35 70.27,27.65 148.03,41.47 233.27,41.47l590.94 0c85.25,0 163.01,-13.82 233.85,-41.47 70.26,-27.65 130.74,-66.25 180.85,-116.35 50.69,-50.11 89.85,-110.59 117.5,-180.85 27.65,-70.27 41.47,-148.6 41.47,-235l0 -462.51z"/>
  <path class="fil1" d="M5428.49 4382.63c187.77,0 277.62,-69.12 277.62,-225.78 0,-93.31 -41.47,-152.06 -125.57,-187.76 85.24,-43.78 123.25,-105.8 123.25,-197.38 0,-76.79 -33.4,-138.99 -93.31,-177.01 -44.93,-28.8 -115.18,-38.01 -211.96,-38.01l-425.07 0 0 825.94 455.02 0zm-24.19 -146.3l-256.89 0 0 -194.67 256.89 0c77.18,0 114.04,28.79 114.04,97.91 0,69.12 -36.86,96.76 -114.04,96.76zm-256.89 -531.04l254.57 0c77.18,0 114.06,28.6 114.06,95.03 0,66.42 -36.87,95.03 -114.06,95.03l-254.57 0 0 -190.07z"/>
  <path id="_1_0" class="fil1" d="M5843.18 3556.69l0 825.94 173.95 0 0 -324.85 205.05 0 182 324.85 195.84 0 -206.21 -345.58c107.13,-23.03 167.04,-104.83 167.04,-232.12 0,-173.36 -93.31,-248.23 -289.15,-248.23l-428.52 0zm387.05 147.44c103.69,0 154.37,18.25 154.37,103.1 0,83.7 -50.68,104.25 -154.37,104.25l-213.1 0 0 -207.35 213.1 0z"/>
  <path id="_2" class="fil1" d="M6944.45 3556.69l-350.19 825.94 184.31 0 73.71 -196.98 359.42 0 76.03 196.98 193.53 0 -352.51 -825.94 -184.3 0zm85.24 164.34l125.57 317.17 -246.52 0 120.95 -317.17z"/>
  <path id="_3" class="fil1" d="M7914.39 3704.13c115.2,0 165.88,29.76 165.88,121.54 0,82.54 -50.68,121.52 -155.51,121.52l-211.96 0 0 -243.06 201.59 0zm-375.54 -147.44l0 825.94 173.95 0 0 -289.13 210.8 0c103.67,0 184.31,-3.46 254.59,-52.99 64.5,-46.08 95.61,-116.15 95.61,-214.83 0,-102.15 -40.31,-180.29 -114.04,-227.51 -50.68,-32.26 -130.16,-41.47 -243.06,-41.47l-377.84 0z"/>
  <path id="_4" class="fil1" d="M8734.57 3698.37l285.68 0 0 -141.69 -289.13 0c-266.1,0 -389.36,135.92 -389.36,427.95 0,149.36 41.47,257.46 126.72,325.42 80.63,64.5 157.81,72.57 258.03,72.57l293.74 0 0 -143.99 -285.68 0c-146.3,0 -202.75,-62.01 -202.75,-247.09 0,-204.67 56.45,-293.17 202.75,-293.17z"/>
  <polygon id="_5" class="fil1" points="9331.27,4382.63 9331.27,3556.69 9149.27,3556.69 9149.27,4382.63 "/>
 </g>
</svg>
