<?xml version="1.0" encoding="UTF-8"?>
<!DOCTYPE svg PUBLIC "-//W3C//DTD SVG 1.1//EN" "http://www.w3.org/Graphics/SVG/1.1/DTD/svg11.dtd">
<!-- Creator: CorelDRAW 2021 (64 Bit) -->
<svg xmlns="http://www.w3.org/2000/svg" xml:space="preserve" width="1246px" height="210px" version="1.1" style="shape-rendering:geometricPrecision; text-rendering:geometricPrecision; image-rendering:optimizeQuality; fill-rule:evenodd; clip-rule:evenodd"
viewBox="0 0 1206.18 203.37"
 xmlns:xlink="http://www.w3.org/1999/xlink"
 xmlns:xodm="http://www.corel.com/coreldraw/odm/2003">
 <defs>
  <style type="text/css">
   <![CDATA[
    .fil0 {fill:#2A344E;fill-rule:nonzero}
   ]]>
  </style>
 </defs>
 <g id="Camada_x0020_1">
  <metadata id="CorelCorpID_0Corel-Layer"/>
  <path class="fil0" d="M203.22 158.69c0,4.55 -0.77,9.39 -2.37,14.62 -1.55,5.18 -4.11,10.02 -7.65,14.47 -3.53,4.46 -8.13,8.14 -13.79,11.14 -5.71,2.95 -12.64,4.45 -20.87,4.45l-140 0c-2.61,0 -5.08,-0.48 -7.36,-1.4 -2.27,-0.97 -4.21,-2.28 -5.9,-3.93 -1.65,-1.64 -2.96,-3.63 -3.88,-5.85 -0.96,-2.28 -1.4,-4.75 -1.4,-7.41l0 -166.19c0,-2.57 0.44,-4.99 1.4,-7.26 0.92,-2.28 2.23,-4.26 3.88,-5.96 1.69,-1.69 3.63,-3 5.9,-3.97 2.28,-0.92 4.75,-1.4 7.36,-1.4l123.4 0c4.55,0 9.44,0.77 14.62,2.42 5.18,1.6 10.02,4.16 14.52,7.7 4.5,3.58 8.23,8.18 11.23,13.84 2.95,5.67 4.46,12.64 4.46,20.87l0 6.92c0,6.54 -1.07,13.55 -3.25,21.06 -2.18,7.55 -5.71,14.62 -10.5,21.35 4.16,2.56 8.03,5.61 11.66,9.24 3.68,3.59 6.88,7.75 9.59,12.44 2.76,4.75 4.94,10.07 6.53,16.03 1.6,5.95 2.42,12.54 2.42,19.75l0 7.07zm-36.88 -7.07c0,-4.84 -0.78,-9.15 -2.28,-12.97 -1.5,-3.83 -3.63,-7.12 -6.39,-9.88 -2.71,-2.76 -6.05,-4.84 -9.92,-6.29 -3.88,-1.5 -8.23,-2.23 -13.03,-2.23l-83.12 0 0 -37.13 66.52 0c4.84,0 9.15,-0.77 13.02,-2.23 3.92,-1.45 7.21,-3.58 9.97,-6.29 2.72,-2.76 4.85,-6.05 6.3,-9.88 1.45,-3.82 2.18,-8.13 2.18,-12.97l0 -6.92c0,-5.33 -2.52,-7.99 -7.65,-7.99l-105.1 0 0 129.64 121.7 0c0.68,0 1.45,-0.05 2.42,-0.14 0.92,-0.1 1.79,-0.39 2.57,-0.83 0.73,-0.48 1.4,-1.3 1.98,-2.42 0.54,-1.11 0.83,-2.71 0.83,-4.69l0 -6.78z"/>
  <path id="_1" class="fil0" d="M438.5 68.35c0,8.43 -1.07,15.93 -3.15,22.56 -2.08,6.59 -4.89,12.44 -8.42,17.53 -3.54,5.03 -7.65,9.34 -12.3,12.97 -4.6,3.58 -9.44,6.54 -14.52,8.86 -5.04,2.32 -10.17,3.97 -15.3,5.04 -5.18,1.01 -10.02,1.54 -14.57,1.54l77.02 66.52 -56.98 0 -76.87 -66.52 -26.53 0 0 -36.88 83.36 0c4.65,-0.39 8.91,-1.36 12.73,-2.91 3.83,-1.55 7.12,-3.68 9.93,-6.29 2.75,-2.66 4.93,-5.86 6.43,-9.59 1.5,-3.72 2.28,-7.98 2.28,-12.83l0 -23.28c0,-2.08 -0.24,-3.63 -0.78,-4.75 -0.53,-1.06 -1.21,-1.88 -1.98,-2.37 -0.82,-0.53 -1.65,-0.87 -2.57,-0.97 -0.92,-0.09 -1.74,-0.14 -2.47,-0.14l-121.7 0 0 166.53 -36.89 0 0 -184.78c0,-2.57 0.49,-4.99 1.46,-7.26 0.92,-2.28 2.22,-4.26 3.87,-5.96 1.64,-1.69 3.63,-3 5.91,-3.97 2.27,-0.92 4.74,-1.4 7.35,-1.4l140 0c8.23,0 15.16,1.5 20.82,4.45 5.71,3 10.31,6.73 13.85,11.23 3.53,4.46 6.1,9.3 7.65,14.53 1.59,5.18 2.37,10.07 2.37,14.62l0 23.52z"/>
  <path id="_2" class="fil0" d="M675.08 203.37l-36.89 0 0 -49.91 -129.64 0 0 49.91 -36.89 0 0 -101.71c0,-14.81 2.56,-28.51 7.65,-40.95 5.13,-12.49 12.2,-23.24 21.3,-32.2 9.05,-9 19.8,-15.97 32.19,-21.01 12.39,-4.98 25.9,-7.5 40.57,-7.5l83.12 0c2.51,0 4.94,0.48 7.21,1.4 2.28,0.97 4.26,2.28 5.95,3.97 1.7,1.7 3.05,3.68 3.97,5.96 0.97,2.27 1.46,4.69 1.46,7.26l0 184.78zm-166.53 -86.8l129.64 0 0 -79.73 -64.82 0c-1.17,0 -3.54,0.19 -7.17,0.53 -3.63,0.34 -7.84,1.16 -12.63,2.47 -4.75,1.31 -9.78,3.34 -15.11,6.1 -5.27,2.76 -10.16,6.54 -14.62,11.33 -4.4,4.84 -8.08,10.89 -10.98,18.1 -2.86,7.22 -4.31,15.98 -4.31,26.29l0 14.91z"/>
  <path id="_3" class="fil0" d="M920.56 85.1c0,8.38 -1.06,15.93 -3.14,22.52 -2.08,6.63 -4.89,12.49 -8.43,17.52 -3.53,5.08 -7.64,9.39 -12.24,12.97 -4.65,3.63 -9.49,6.54 -14.58,8.81 -5.03,2.28 -10.16,3.92 -15.29,4.94 -5.13,1.07 -9.98,1.6 -14.53,1.6l-83.41 0 0 -36.89 83.41 0c4.7,-0.39 9.01,-1.35 12.83,-2.9 3.83,-1.55 7.12,-3.68 9.88,-6.3 2.71,-2.66 4.84,-5.85 6.34,-9.58 1.55,-3.73 2.28,-7.99 2.28,-12.69l0 -16.75c-0.49,-4.64 -1.46,-8.9 -2.96,-12.78 -1.55,-3.87 -3.58,-7.16 -6.19,-9.92 -2.57,-2.71 -5.72,-4.89 -9.44,-6.44 -3.68,-1.55 -7.94,-2.37 -12.74,-2.37l-83.12 0c-4.93,0 -8.66,1.31 -11.23,3.87 -2.51,2.52 -3.82,6.25 -3.82,11.04l0 151.62 -36.84 0 0 -151.62c0,-9.44 1.69,-17.48 5.18,-24.11 3.44,-6.63 7.74,-11.96 12.88,-16.02 5.18,-4.07 10.74,-7.02 16.79,-8.86 6.05,-1.84 11.67,-2.76 16.75,-2.76l83.41 0c8.33,0 15.79,1.06 22.42,3.2 6.58,2.12 12.44,4.93 17.47,8.51 5.09,3.54 9.4,7.61 12.93,12.25 3.53,4.65 6.49,9.49 8.81,14.53 2.32,5.08 3.97,10.16 5.03,15.34 1.02,5.13 1.55,9.97 1.55,14.52l0 16.75z"/>
  <path id="_4" class="fil0" d="M1134.15 203.37l-133.03 0c-3.39,0 -7.07,-0.39 -10.99,-1.21 -3.92,-0.78 -7.8,-2.03 -11.62,-3.78 -3.82,-1.69 -7.5,-3.87 -10.99,-6.58 -3.53,-2.66 -6.58,-5.95 -9.29,-9.78 -2.72,-3.82 -4.84,-8.28 -6.44,-13.31 -1.65,-5.08 -2.42,-10.8 -2.42,-17.09l0 -99.87c0,-3.39 0.38,-7.07 1.21,-10.99 0.77,-3.92 2.03,-7.79 3.73,-11.62 1.69,-3.82 3.92,-7.5 6.68,-10.99 2.75,-3.48 6,-6.58 9.87,-9.29 3.83,-2.71 8.23,-4.84 13.27,-6.44 4.98,-1.65 10.65,-2.42 16.99,-2.42l133.03 0 0 36.84 -133.03 0c-4.84,0 -8.52,1.31 -11.04,3.87 -2.57,2.52 -3.87,6.3 -3.87,11.33l0 99.58c0,4.7 1.3,8.37 3.92,10.99 2.61,2.56 6.24,3.87 10.99,3.87l133.03 0 0 36.89z"/>
  <polygon id="_5" class="fil0" points="1206.18,203.37 1169.29,203.37 1169.29,0 1206.18,0 "/>
 </g>
</svg>
