<?xml version="1.0" encoding="UTF-8"?>
<!DOCTYPE svg PUBLIC "-//W3C//DTD SVG 1.1//EN" "http://www.w3.org/Graphics/SVG/1.1/DTD/svg11.dtd">
<!-- Creator: CorelDRAW 2021 (64 Bit) -->
<svg xmlns="http://www.w3.org/2000/svg" xml:space="preserve" width="2480px" height="3508px" version="1.1" style="shape-rendering:geometricPrecision; text-rendering:geometricPrecision; image-rendering:optimizeQuality; fill-rule:evenodd; clip-rule:evenodd"
viewBox="0 0 2480 3507.43"
 xmlns:xlink="http://www.w3.org/1999/xlink"
 xmlns:xodm="http://www.corel.com/coreldraw/odm/2003">
 <defs>
  <style type="text/css">
   <![CDATA[
    .str0 {stroke:#373435;stroke-width:0.9;stroke-miterlimit:22.9256}
    .fil0 {fill:#FEFEFE;fill-rule:nonzero}
   ]]>
  </style>
 </defs>
 <g id="Camada_x0020_1">
  <metadata id="CorelCorpID_0Corel-Layer"/>
  <path class="fil0 str0" d="M806.49 1100.37c0,4.71 -0.8,9.7 -2.45,15.1 -1.6,5.35 -4.25,10.35 -7.9,14.95 -3.65,4.6 -8.4,8.4 -14.24,11.5 -5.9,3.05 -13.05,4.6 -21.55,4.6l-144.58 0c-2.7,0 -5.25,-0.5 -7.6,-1.45 -2.35,-1 -4.35,-2.35 -6.1,-4.05 -1.7,-1.7 -3.05,-3.75 -4,-6.05 -1,-2.35 -1.45,-4.9 -1.45,-7.65l0 -171.63c0,-2.65 0.45,-5.15 1.45,-7.5 0.95,-2.35 2.3,-4.4 4,-6.14 1.75,-1.75 3.75,-3.1 6.1,-4.1 2.35,-0.95 4.9,-1.45 7.6,-1.45l127.43 0c4.7,0 9.75,0.8 15.1,2.5 5.35,1.65 10.35,4.3 15,7.94 4.65,3.7 8.5,8.45 11.6,14.3 3.04,5.85 4.6,13.05 4.6,21.55l0 7.15c0,6.75 -1.11,14 -3.36,21.75 -2.25,7.8 -5.89,15.09 -10.84,22.04 4.3,2.65 8.29,5.8 12.04,9.55 3.8,3.7 7.1,8 9.9,12.85 2.85,4.9 5.1,10.4 6.75,16.55 1.65,6.15 2.5,12.95 2.5,20.4l0 7.29zm-38.09 -7.29c0,-5 -0.8,-9.45 -2.35,-13.4 -1.55,-3.95 -3.75,-7.35 -6.6,-10.2 -2.8,-2.85 -6.25,-5 -10.25,-6.5 -4,-1.55 -8.5,-2.3 -13.45,-2.3l-85.84 0 0 -38.34 68.69 0c5,0 9.45,-0.8 13.45,-2.3 4.05,-1.5 7.45,-3.7 10.3,-6.5 2.8,-2.85 5,-6.25 6.5,-10.2 1.5,-3.95 2.25,-8.4 2.25,-13.4l0 -7.15c0,-5.5 -2.6,-8.25 -7.9,-8.25l-108.54 0 0 133.88 125.69 0c0.7,0 1.5,-0.05 2.5,-0.15 0.95,-0.1 1.85,-0.4 2.65,-0.85 0.75,-0.5 1.45,-1.35 2.05,-2.49 0.55,-1.16 0.85,-2.81 0.85,-4.86l0 -6.99zm281.06 -85.99c0,8.7 -1.1,16.44 -3.25,23.29 -2.15,6.8 -5.05,12.85 -8.7,18.1 -3.65,5.2 -7.9,9.65 -12.69,13.4 -4.75,3.7 -9.75,6.75 -15,9.15 -5.2,2.4 -10.5,4.1 -15.8,5.2 -5.35,1.05 -10.35,1.6 -15.05,1.6l79.54 68.69 -58.84 0 -79.39 -68.69 -27.4 0 0 -38.1 86.09 0c4.8,-0.4 9.2,-1.4 13.15,-3 3.95,-1.6 7.35,-3.8 10.25,-6.5 2.85,-2.75 5.1,-6.05 6.65,-9.89 1.55,-3.85 2.35,-8.25 2.35,-13.25l0 -24.05c0,-2.15 -0.25,-3.75 -0.8,-4.9 -0.55,-1.1 -1.25,-1.95 -2.05,-2.45 -0.85,-0.55 -1.7,-0.9 -2.65,-1 -0.95,-0.1 -1.8,-0.15 -2.55,-0.15l-125.69 0 0 171.98 -38.09 0 0 -190.83c0,-2.65 0.5,-5.15 1.5,-7.5 0.95,-2.35 2.3,-4.4 4,-6.14 1.7,-1.75 3.75,-3.1 6.1,-4.1 2.35,-0.95 4.9,-1.45 7.6,-1.45l144.58 0c8.5,0 15.65,1.55 21.5,4.6 5.89,3.1 10.64,6.94 14.29,11.59 3.65,4.6 6.3,9.6 7.9,15 1.65,5.35 2.45,10.4 2.45,15.1l0 24.3zm244.32 139.43l-38.09 0 0 -51.54 -133.89 0 0 51.54 -38.09 0 0 -105.04c0,-15.29 2.65,-29.44 7.9,-42.29 5.3,-12.9 12.59,-24 21.99,-33.25 9.35,-9.3 20.45,-16.5 33.25,-21.7 12.8,-5.14 26.75,-7.74 41.89,-7.74l85.84 0c2.6,0 5.1,0.5 7.45,1.45 2.35,1 4.4,2.35 6.15,4.1 1.75,1.74 3.15,3.79 4.1,6.14 1,2.35 1.5,4.85 1.5,7.5l0 190.83zm-171.98 -89.64l133.89 0 0 -82.34 -66.95 0c-1.2,0 -3.65,0.2 -7.4,0.55 -3.75,0.35 -8.09,1.2 -13.04,2.55 -4.9,1.35 -10.1,3.45 -15.6,6.3 -5.45,2.85 -10.5,6.75 -15.1,11.7 -4.55,5 -8.35,11.25 -11.35,18.7 -2.95,7.44 -4.45,16.49 -4.45,27.14l0 15.4zm425.5 -32.49c0,8.64 -1.1,16.44 -3.25,23.24 -2.15,6.85 -5.05,12.9 -8.7,18.1 -3.65,5.25 -7.9,9.7 -12.65,13.4 -4.8,3.75 -9.8,6.75 -15.05,9.1 -5.2,2.35 -10.5,4.05 -15.8,5.1 -5.29,1.1 -10.29,1.65 -14.99,1.65l-86.14 0 0 -38.1 86.14 0c4.85,-0.4 9.3,-1.4 13.25,-3 3.94,-1.6 7.34,-3.8 10.19,-6.5 2.8,-2.75 5,-6.05 6.55,-9.9 1.6,-3.85 2.35,-8.25 2.35,-13.09l0 -17.3c-0.5,-4.8 -1.5,-9.2 -3.05,-13.2 -1.6,-4 -3.7,-7.4 -6.4,-10.25 -2.65,-2.8 -5.89,-5.05 -9.74,-6.65 -3.8,-1.6 -8.2,-2.45 -13.15,-2.45l-85.84 0c-5.1,0 -8.95,1.35 -11.6,4 -2.6,2.6 -3.95,6.45 -3.95,11.4l0 156.58 -38.04 0 0 -156.58c0,-9.75 1.74,-18.05 5.34,-24.9 3.55,-6.85 8,-12.35 13.3,-16.55 5.35,-4.19 11.1,-7.24 17.35,-9.14 6.25,-1.9 12.05,-2.85 17.3,-2.85l86.14 0c8.6,0 16.29,1.1 23.14,3.3 6.8,2.19 12.85,5.1 18.05,8.79 5.25,3.65 9.7,7.85 13.35,12.65 3.65,4.8 6.7,9.8 9.1,15 2.4,5.25 4.1,10.5 5.2,15.85 1.05,5.3 1.6,10.3 1.6,15l0 17.3zm220.57 122.13l-137.38 0c-3.5,0 -7.3,-0.4 -11.35,-1.25 -4.05,-0.8 -8.05,-2.1 -12,-3.9 -3.95,-1.75 -7.75,-4 -11.35,-6.8 -3.65,-2.75 -6.8,-6.15 -9.6,-10.1 -2.8,-3.95 -5,-8.55 -6.65,-13.75 -1.7,-5.25 -2.5,-11.14 -2.5,-17.64l0 -103.14c0,-3.5 0.4,-7.3 1.25,-11.35 0.8,-4.05 2.1,-8.05 3.85,-12 1.75,-3.95 4.05,-7.75 6.9,-11.35 2.85,-3.6 6.2,-6.8 10.2,-9.59 3.95,-2.8 8.5,-5 13.7,-6.65 5.15,-1.7 11,-2.5 17.55,-2.5l137.38 0 0 38.04 -137.38 0c-5,0 -8.8,1.35 -11.4,4 -2.65,2.6 -4,6.5 -4,11.7l0 102.84c0,4.85 1.35,8.64 4.05,11.34 2.7,2.65 6.45,4 11.35,4l137.38 0 0 38.1zm74.39 0l-38.1 0 0 -210.02 38.1 0 0 210.02z"/>
 </g>
</svg>
